<svg width="20" height="20" viewBox="0 0 20 20" fill="none" xmlns="http://www.w3.org/2000/svg">
<path d="M1.70033 6.87517C1.67783 7.48101 1.66699 8.10851 1.66699 8.75017C1.66711 9.37532 1.67823 10.0004 1.70033 10.6252C1.76949 12.6027 1.80449 13.5918 2.60866 14.4018C3.41323 15.2122 4.42924 15.256 6.46039 15.3434L6.46366 15.3435L6.66699 15.3518V17.3085C6.66688 17.4249 6.70016 17.5389 6.76288 17.6369C6.8256 17.7349 6.91513 17.8129 7.02083 17.8616C7.12654 17.9103 7.244 17.9276 7.35927 17.9116C7.47454 17.8955 7.58278 17.8467 7.67116 17.771L9.48699 16.2127C9.94366 15.821 10.172 15.6268 10.4437 15.5227C10.713 15.4194 11.0193 15.4136 11.6255 15.4021L11.6412 15.4018C12.2928 15.3891 12.9248 15.3696 13.537 15.3435L13.5406 15.3434C15.5715 15.256 16.5883 15.2122 17.392 14.4027C18.1962 13.5918 18.2312 12.6027 18.3003 10.6252C18.3443 9.37556 18.3443 8.12479 18.3003 6.87517C18.2312 4.89767 18.1962 3.90851 17.392 3.09851C16.5874 2.28811 15.5714 2.24439 13.5403 2.15698L13.537 2.15684C12.4212 2.10851 11.2337 2.08351 10.0003 2.08351C8.82105 2.08292 7.6419 2.10737 6.46366 2.15684L6.4601 2.15699C4.42914 2.24439 3.41236 2.28815 2.60866 3.09767C1.80449 3.90851 1.76949 4.89767 1.70033 6.87517Z" stroke="#252525" stroke-width="1.125" stroke-linecap="round" stroke-linejoin="round"/>
<path d="M10.1057 8.75033H10.0007M6.77065 8.75033H6.66732M13.4382 8.75033H13.334M10.209 8.75033C10.209 8.80558 10.187 8.85857 10.148 8.89764C10.1089 8.93671 10.0559 8.95866 10.0007 8.95866C9.9454 8.95866 9.89241 8.93671 9.85334 8.89764C9.81427 8.85857 9.79232 8.80558 9.79232 8.75033C9.79232 8.69507 9.81427 8.64208 9.85334 8.60301C9.89241 8.56394 9.9454 8.54199 10.0007 8.54199C10.0559 8.54199 10.1089 8.56394 10.148 8.60301C10.187 8.64208 10.209 8.69507 10.209 8.75033ZM6.87565 8.75033C6.87565 8.80558 6.8537 8.85857 6.81463 8.89764C6.77556 8.93671 6.72257 8.95866 6.66732 8.95866C6.61206 8.95866 6.55907 8.93671 6.52 8.89764C6.48093 8.85857 6.45898 8.80558 6.45898 8.75033C6.45898 8.69507 6.48093 8.64208 6.52 8.60301C6.55907 8.56394 6.61206 8.54199 6.66732 8.54199C6.72257 8.54199 6.77556 8.56394 6.81463 8.60301C6.8537 8.64208 6.87565 8.69507 6.87565 8.75033ZM13.5423 8.75033C13.5423 8.80558 13.5204 8.85857 13.4813 8.89764C13.4422 8.93671 13.3892 8.95866 13.334 8.95866C13.2787 8.95866 13.2257 8.93671 13.1867 8.89764C13.1476 8.85857 13.1257 8.80558 13.1257 8.75033C13.1257 8.69507 13.1476 8.64208 13.1867 8.60301C13.2257 8.56394 13.2787 8.54199 13.334 8.54199C13.3892 8.54199 13.4422 8.56394 13.4813 8.60301C13.5204 8.64208 13.5423 8.69507 13.5423 8.75033Z" stroke="#252525" stroke-width="1.125" stroke-linecap="round" stroke-linejoin="round"/>
</svg>
