<svg width="16" height="16" viewBox="0 0 16 16" fill="none" xmlns="http://www.w3.org/2000/svg">
<path d="M14 2L8.66667 7.66667M6.29733 7.39C4.644 8.02467 3.322 7.916 2 7.392C2.33333 11.6873 4.336 13.3387 7.006 14C7.006 14 9.01733 12.5773 9.30733 9.20467C9.33867 8.83933 9.354 8.65733 9.27867 8.45133C9.20267 8.24533 9.05333 8.098 8.75533 7.80267C8.26467 7.31733 8.02 7.07467 7.72867 7.01333C7.43733 6.95333 7.05733 7.09867 6.29733 7.39Z" stroke="#000000" stroke-linecap="round" stroke-linejoin="round"/>
<path d="M3 10.964C3 10.964 4.66667 11.2867 6.33333 10" stroke="#000000" stroke-linecap="round" stroke-linejoin="round"/>
<path d="M5.66667 4.83333C5.66667 5.05435 5.57887 5.26631 5.42259 5.42259C5.26631 5.57887 5.05435 5.66667 4.83333 5.66667C4.61232 5.66667 4.40036 5.57887 4.24408 5.42259C4.0878 5.26631 4 5.05435 4 4.83333C4 4.61232 4.0878 4.40036 4.24408 4.24408C4.40036 4.0878 4.61232 4 4.83333 4C5.05435 4 5.26631 4.0878 5.42259 4.24408C5.57887 4.40036 5.66667 4.61232 5.66667 4.83333Z" stroke="#000000"/>
<path d="M7.41675 2.66667H7.33341M7.50008 2.66667C7.50008 2.71087 7.48252 2.75326 7.45127 2.78452C7.42001 2.81577 7.37762 2.83333 7.33341 2.83333C7.28921 2.83333 7.24682 2.81577 7.21556 2.78452C7.18431 2.75326 7.16675 2.71087 7.16675 2.66667C7.16675 2.62246 7.18431 2.58007 7.21556 2.54882C7.24682 2.51756 7.28921 2.5 7.33341 2.5C7.37762 2.5 7.42001 2.51756 7.45127 2.54882C7.48252 2.58007 7.50008 2.62246 7.50008 2.66667Z" stroke="#000000" stroke-linecap="round" stroke-linejoin="round"/>
</svg>
