<svg width="20" height="20" viewBox="0 0 20 20" fill="none" xmlns="http://www.w3.org/2000/svg">
<path d="M7.08317 11.6667C7.35944 11.6667 7.62439 11.5569 7.81974 11.3616C8.01509 11.1662 8.12484 10.9013 8.12484 10.625C8.12484 10.3487 8.01509 10.0838 7.81974 9.88843C7.62439 9.69308 7.35944 9.58334 7.08317 9.58334C6.8069 9.58334 6.54195 9.69308 6.3466 9.88843C6.15125 10.0838 6.0415 10.3487 6.0415 10.625C6.0415 10.9013 6.15125 11.1662 6.3466 11.3616C6.54195 11.5569 6.8069 11.6667 7.08317 11.6667ZM7.08317 14.5833C7.35944 14.5833 7.62439 14.4736 7.81974 14.2782C8.01509 14.0829 8.12484 13.8179 8.12484 13.5417C8.12484 13.2654 8.01509 13.0004 7.81974 12.8051C7.62439 12.6097 7.35944 12.5 7.08317 12.5C6.8069 12.5 6.54195 12.6097 6.3466 12.8051C6.15125 13.0004 6.0415 13.2654 6.0415 13.5417C6.0415 13.8179 6.15125 14.0829 6.3466 14.2782C6.54195 14.4736 6.8069 14.5833 7.08317 14.5833ZM11.0415 10.625C11.0415 10.9013 10.9318 11.1662 10.7364 11.3616C10.5411 11.5569 10.2761 11.6667 9.99984 11.6667C9.72357 11.6667 9.45862 11.5569 9.26327 11.3616C9.06792 11.1662 8.95817 10.9013 8.95817 10.625C8.95817 10.3487 9.06792 10.0838 9.26327 9.88843C9.45862 9.69308 9.72357 9.58334 9.99984 9.58334C10.2761 9.58334 10.5411 9.69308 10.7364 9.88843C10.9318 10.0838 11.0415 10.3487 11.0415 10.625ZM9.99984 14.5833C10.2761 14.5833 10.5411 14.4736 10.7364 14.2782C10.9318 14.0829 11.0415 13.8179 11.0415 13.5417C11.0415 13.2654 10.9318 13.0004 10.7364 12.8051C10.5411 12.6097 10.2761 12.5 9.99984 12.5C9.72357 12.5 9.45862 12.6097 9.26327 12.8051C9.06792 13.0004 8.95817 13.2654 8.95817 13.5417C8.95817 13.8179 9.06792 14.0829 9.26327 14.2782C9.45862 14.4736 9.72357 14.5833 9.99984 14.5833ZM13.9582 10.625C13.9582 10.9013 13.8484 11.1662 13.6531 11.3616C13.4577 11.5569 13.1928 11.6667 12.9165 11.6667C12.6402 11.6667 12.3753 11.5569 12.1799 11.3616C11.9846 11.1662 11.8748 10.9013 11.8748 10.625C11.8748 10.3487 11.9846 10.0838 12.1799 9.88843C12.3753 9.69308 12.6402 9.58334 12.9165 9.58334C13.1928 9.58334 13.4577 9.69308 13.6531 9.88843C13.8484 10.0838 13.9582 10.3487 13.9582 10.625Z" fill="#949BA9"/>
<path fill-rule="evenodd" clip-rule="evenodd" d="M6.6665 2.70834C6.83226 2.70834 6.99124 2.77418 7.10845 2.89139C7.22566 3.0086 7.2915 3.16758 7.2915 3.33334V3.95834H12.7082V3.33334C12.7082 3.16758 12.774 3.0086 12.8912 2.89139C13.0084 2.77418 13.1674 2.70834 13.3332 2.70834C13.4989 2.70834 13.6579 2.77418 13.7751 2.89139C13.8923 3.0086 13.9582 3.16758 13.9582 3.33334V3.965C14.0848 3.96834 14.2029 3.97445 14.3123 3.98334C14.629 4.00834 14.9257 4.065 15.2065 4.20834C15.6378 4.42806 15.9884 4.77871 16.2082 5.21C16.3515 5.49084 16.4082 5.7875 16.4332 6.10417C16.4582 6.40834 16.4582 6.77917 16.4582 7.225V13.6083C16.4582 14.0542 16.4582 14.425 16.4332 14.7292C16.4082 15.0458 16.3515 15.3425 16.2082 15.6233C15.9887 16.0545 15.6383 16.4051 15.2073 16.625C14.9257 16.7683 14.629 16.825 14.3123 16.85C14.0082 16.875 13.6373 16.875 13.1923 16.875H6.80817C6.36234 16.875 5.9915 16.875 5.68734 16.85C5.37067 16.825 5.074 16.7683 4.79317 16.625C4.36213 16.4057 4.01151 16.0557 3.7915 15.625C3.64817 15.3433 3.5915 15.0467 3.5665 14.73C3.5415 14.4258 3.5415 14.055 3.5415 13.61V7.225C3.5415 6.77917 3.5415 6.40834 3.5665 6.10417C3.5915 5.7875 3.64817 5.49084 3.7915 5.21C4.01123 4.77871 4.36188 4.42806 4.79317 4.20834C5.074 4.065 5.37067 4.00834 5.68734 3.98334C5.79678 3.97445 5.91484 3.96834 6.0415 3.965V3.33334C6.0415 3.25126 6.05767 3.16999 6.08908 3.09416C6.12049 3.01833 6.16653 2.94943 6.22456 2.89139C6.2826 2.83336 6.3515 2.78732 6.42733 2.75591C6.50316 2.7245 6.58443 2.70834 6.6665 2.70834ZM6.0415 5.41667V5.215C5.95723 5.2176 5.87304 5.22232 5.789 5.22917C5.54984 5.24834 5.43567 5.28334 5.36067 5.32167C5.16435 5.42159 5.00476 5.58118 4.90484 5.7775C4.8665 5.8525 4.8315 5.96667 4.81234 6.20584C4.79234 6.4525 4.7915 6.7725 4.7915 7.25V7.70834H15.2082V7.25C15.2082 6.77334 15.2082 6.4525 15.1873 6.20584C15.1682 5.96667 15.1332 5.8525 15.0948 5.7775C14.9949 5.58118 14.8353 5.42159 14.639 5.32167C14.564 5.28334 14.4498 5.24834 14.2098 5.22917C14.1261 5.22233 14.0422 5.21761 13.9582 5.215V5.41667C13.9582 5.58243 13.8923 5.7414 13.7751 5.85861C13.6579 5.97582 13.4989 6.04167 13.3332 6.04167C13.1674 6.04167 13.0084 5.97582 12.8912 5.85861C12.774 5.7414 12.7082 5.58243 12.7082 5.41667V5.20834H7.2915V5.41667C7.2915 5.58243 7.22566 5.7414 7.10845 5.85861C6.99124 5.97582 6.83226 6.04167 6.6665 6.04167C6.50074 6.04167 6.34177 5.97582 6.22456 5.85861C6.10735 5.7414 6.0415 5.58243 6.0415 5.41667ZM15.2082 8.54167H4.7915V13.5833C4.7915 14.06 4.7915 14.3808 4.81234 14.6267C4.8315 14.8667 4.8665 14.9808 4.90484 15.0558C5.00484 15.2525 5.164 15.4117 5.36067 15.5117C5.43567 15.55 5.54984 15.585 5.789 15.6042C6.03567 15.6242 6.35567 15.625 6.83317 15.625H13.1665C13.6432 15.625 13.964 15.625 14.2098 15.6042C14.4498 15.585 14.564 15.55 14.639 15.5117C14.8353 15.4117 14.9949 15.2522 15.0948 15.0558C15.1332 14.9808 15.1682 14.8667 15.1873 14.6267C15.2073 14.3808 15.2082 14.06 15.2082 13.5833V8.54167Z" fill="#949BA9"/>
<path fill-rule="evenodd" clip-rule="evenodd" d="M8.125 6.45834C8.125 6.29258 8.19085 6.1336 8.30806 6.01639C8.42527 5.89918 8.58424 5.83334 8.75 5.83334H11.25C11.4158 5.83334 11.5747 5.89918 11.6919 6.01639C11.8092 6.1336 11.875 6.29258 11.875 6.45834C11.875 6.6241 11.8092 6.78307 11.6919 6.90028C11.5747 7.01749 11.4158 7.08334 11.25 7.08334H8.75C8.58424 7.08334 8.42527 7.01749 8.30806 6.90028C8.19085 6.78307 8.125 6.6241 8.125 6.45834Z" fill="#949BA9"/>
</svg>
