<svg width="68" height="68" viewBox="0 0 68 68" fill="none" xmlns="http://www.w3.org/2000/svg">
<path d="M1.66675 20.0194V10.1109C1.66675 5.44721 5.44745 1.6665 10.1112 1.6665H19.6816" stroke="#1E5896" stroke-width="3.33333" stroke-linecap="round"/>
<path d="M1.66675 47.3136V57.2221C1.66675 61.8858 5.44745 65.6665 10.1112 65.6665H19.6816" stroke="#1E5896" stroke-width="3.33333" stroke-linecap="round"/>
<path d="M65.6667 20.0194V10.1109C65.6667 5.44721 61.886 1.6665 57.2223 1.6665H47.6519" stroke="#1E5896" stroke-width="3.33333" stroke-linecap="round"/>
<path d="M65.6667 47.3136V57.2221C65.6667 61.8858 61.886 65.6665 57.2223 65.6665H47.6519" stroke="#1E5896" stroke-width="3.33333" stroke-linecap="round"/>
<path d="M44.2874 43L42.3143 43.8477C36.6391 46.2859 30.2115 46.2859 24.5363 43.8477L22.5632 43" stroke="#1E5896" stroke-width="3.33333" stroke-linecap="round"/>
<path d="M34.8609 19.6665V31.1408C34.8609 32.923 33.6075 34.4594 31.8617 34.8174L30.2874 35.1402" stroke="#1E5896" stroke-width="3.33333" stroke-linecap="round"/>
<path d="M19.6667 19.6665L19.6667 25.1928" stroke="#1E5896" stroke-width="3.33333" stroke-linecap="round"/>
<path d="M47.6667 19.6665L47.6667 25.1928" stroke="#1E5896" stroke-width="3.33333" stroke-linecap="round"/>
</svg>
