<svg width="16" height="16" viewBox="0 0 16 16" fill="none" xmlns="http://www.w3.org/2000/svg">
<path d="M3.33325 8.00002V2.66669M12.6666 13.3334V11.3334M3.33325 13.3334V10.6667M12.6666 8.66669V2.66669M7.99992 4.66669V2.66669M7.99992 13.3334V7.33335" stroke="white" stroke-width="0.666667" stroke-linecap="round"/>
<path d="M3.33333 10.6667C4.06971 10.6667 4.66667 10.0697 4.66667 9.33333C4.66667 8.59695 4.06971 8 3.33333 8C2.59695 8 2 8.59695 2 9.33333C2 10.0697 2.59695 10.6667 3.33333 10.6667Z" stroke="white" stroke-width="0.666667" stroke-linecap="round"/>
<path d="M8.00008 7.33335C8.73646 7.33335 9.33341 6.7364 9.33341 6.00002C9.33341 5.26364 8.73646 4.66669 8.00008 4.66669C7.2637 4.66669 6.66675 5.26364 6.66675 6.00002C6.66675 6.7364 7.2637 7.33335 8.00008 7.33335Z" stroke="white" stroke-width="0.666667" stroke-linecap="round"/>
<path d="M12.6666 11.3334C13.403 11.3334 13.9999 10.7364 13.9999 10C13.9999 9.26364 13.403 8.66669 12.6666 8.66669C11.9302 8.66669 11.3333 9.26364 11.3333 10C11.3333 10.7364 11.9302 11.3334 12.6666 11.3334Z" stroke="white" stroke-width="0.666667" stroke-linecap="round"/>
</svg>
