<svg width="16" height="16" viewBox="0 0 16 16" fill="none" xmlns="http://www.w3.org/2000/svg">
<path d="M0.548509 14.4848L1.53394 15.47C2.07622 16 2.69365 15.9563 3.24251 15.3514L9.77108 8.24314C10.0391 8.43028 10.2882 8.42399 10.5939 8.36171L11.2611 8.22456L11.7039 8.66742L11.6725 8.99771C11.6291 9.34056 11.7288 9.60256 12.0468 9.92056L12.5705 10.438C12.8885 10.7623 13.3125 10.7809 13.6179 10.4754L15.6945 8.39914C15.9999 8.09342 15.9814 7.67571 15.6631 7.35142L15.1394 6.82771C14.8217 6.50971 14.5534 6.39742 14.2165 6.44742L13.8799 6.48456L13.4559 6.06085L13.6431 5.33114C13.7302 4.96971 13.6368 4.67656 13.2439 4.28999L11.7039 2.75599C9.44022 0.505136 6.54108 0.573707 4.55822 2.57514C4.28365 2.84942 4.25879 3.22371 4.43337 3.49799C4.57679 3.73514 4.88222 3.87828 5.29994 3.77228C6.26651 3.52942 7.23308 3.60399 8.18079 4.24628L7.78165 5.25656C7.63194 5.63056 7.64451 5.93599 7.79422 6.21656L0.66708 12.7766C0.0685087 13.3308 -6.2719e-05 13.9357 0.548794 14.4846M5.54965 2.82456C7.25194 1.55228 9.37194 1.75799 10.9059 3.29199L12.5831 4.95685C12.7328 5.10656 12.7517 5.22485 12.7079 5.41199L12.4711 6.40971L13.4748 7.41371L14.0862 7.35742C14.2668 7.33885 14.3228 7.35114 14.4725 7.49456L14.8654 7.89371L13.1134 9.65199L12.7142 9.25314C12.5708 9.10971 12.5582 9.05342 12.5771 8.87256L12.6331 8.25542L11.6357 7.25771L10.6005 7.45714C10.4197 7.49456 10.3262 7.49456 10.1702 7.33885L8.78565 5.94856C8.63594 5.79885 8.61708 5.71142 8.69822 5.51199L9.30965 4.05285C8.28679 3.07399 6.93365 2.53142 5.63051 2.94942C5.57451 2.96799 5.53708 2.95542 5.51822 2.93056C5.49965 2.89942 5.49965 2.86828 5.54965 2.82485M1.35937 14.0357C1.04137 13.7177 1.15365 13.5243 1.36537 13.3309L8.36794 6.87085L9.14737 7.65656L2.66851 14.6349C2.47508 14.8469 2.23194 14.9091 1.96994 14.6534L1.35937 14.0357Z" fill="#000000"/>
</svg>
