<svg width="18" height="18" viewBox="0 0 18 18" fill="none" xmlns="http://www.w3.org/2000/svg">
<path d="M4.5 14.25H7.269V10.4422C7.269 10.2707 7.32725 10.127 7.44375 10.011C7.55975 9.89449 7.7035 9.83624 7.875 9.83624H10.125C10.2965 9.83624 10.4405 9.89449 10.557 10.011C10.673 10.127 10.731 10.2707 10.731 10.4422V14.25H13.5V7.73099C13.5 7.65399 13.4833 7.58399 13.4498 7.52099C13.4163 7.45799 13.3705 7.40299 13.3125 7.35599L9.2745 4.31249C9.1975 4.24549 9.106 4.21199 9 4.21199C8.894 4.21199 8.80275 4.24549 8.72625 4.31249L4.6875 7.35599C4.63 7.40399 4.58425 7.45899 4.55025 7.52099C4.51625 7.58299 4.4995 7.65299 4.5 7.73099V14.25ZM3.75 14.25V7.73099C3.75 7.53899 3.793 7.35724 3.879 7.18574C3.965 7.01424 4.0835 6.87299 4.2345 6.76199L8.27325 3.70349C8.48475 3.54199 8.72625 3.46124 8.99775 3.46124C9.26925 3.46124 9.51225 3.54199 9.72675 3.70349L13.7655 6.76124C13.917 6.87224 14.0355 7.01374 14.121 7.18574C14.207 7.35724 14.25 7.53899 14.25 7.73099V14.25C14.25 14.451 14.1753 14.6262 14.0258 14.7757C13.8763 14.9252 13.701 15 13.5 15H10.587C10.415 15 10.271 14.942 10.155 14.826C10.039 14.7095 9.981 14.5655 9.981 14.394V10.587H8.019V14.394C8.019 14.566 7.961 14.71 7.845 14.826C7.729 14.942 7.58525 15 7.41375 15H4.5C4.299 15 4.12375 14.9252 3.97425 14.7757C3.82475 14.6262 3.75 14.451 3.75 14.25Z" fill="#1E5896"/>
</svg>
