<svg width="16" height="16" viewBox="0 0 16 16" fill="none" xmlns="http://www.w3.org/2000/svg">
<path d="M7.9999 1.33331C8.51308 1.33291 9.02281 1.41715 9.50856 1.58265C9.04823 2.05855 8.75827 2.67337 8.68387 3.33129C8.60947 3.9892 8.75481 4.65325 9.09724 5.21994C9.43967 5.78662 9.95995 6.2241 10.577 6.4642C11.194 6.7043 11.8732 6.73352 12.5086 6.54731L12.6666 6.49531V8.35131C12.6667 8.42862 12.6802 8.50532 12.7066 8.57798L12.7372 8.64931L13.8812 10.938C13.9342 11.044 13.9608 11.1612 13.9585 11.2797C13.9563 11.3982 13.9254 11.5144 13.8685 11.6184C13.8115 11.7223 13.7302 11.8109 13.6316 11.8765C13.5329 11.9422 13.4198 11.9829 13.3019 11.9953L13.2252 11.9993H2.77457C2.65601 11.9993 2.53921 11.9706 2.43418 11.9156C2.32915 11.8606 2.23902 11.781 2.17151 11.6835C2.104 11.5861 2.06113 11.4737 2.04657 11.3561C2.03201 11.2384 2.04619 11.119 2.0879 11.008L2.11857 10.938L3.26323 8.64931C3.29764 8.5801 3.31974 8.50543 3.32857 8.42865L3.33323 8.35198V5.99998C3.33323 4.7623 3.8249 3.57532 4.70007 2.70015C5.57524 1.82498 6.76222 1.33331 7.9999 1.33331ZM11.6666 1.99998C12.1086 1.99998 12.5325 2.17558 12.8451 2.48814C13.1576 2.8007 13.3332 3.22462 13.3332 3.66665C13.3332 4.10868 13.1576 4.5326 12.8451 4.84516C12.5325 5.15772 12.1086 5.33331 11.6666 5.33331C11.2245 5.33331 10.8006 5.15772 10.4881 4.84516C10.1755 4.5326 9.9999 4.10868 9.9999 3.66665C9.9999 3.22462 10.1755 2.8007 10.4881 2.48814C10.8006 2.17558 11.2245 1.99998 11.6666 1.99998ZM7.9999 14C7.58613 14.0002 7.18248 13.8721 6.84458 13.6333C6.50667 13.3945 6.25115 13.0568 6.11323 12.6666H9.88657C9.74864 13.0568 9.49312 13.3945 9.15522 13.6333C8.81732 13.8721 8.41367 14.0002 7.9999 14Z" fill="#252525"/>
<circle cx="11.5" cy="3.5" r="2.5" fill="#083769"/>
</svg>
