<svg width="18" height="18" viewBox="0 0 18 18" fill="none" xmlns="http://www.w3.org/2000/svg">
<path d="M13.0282 13.9403L12.537 13.4482C12.472 13.3837 12.3953 13.3515 12.3068 13.3515C12.2178 13.3515 12.141 13.3837 12.0765 13.4482C12.012 13.5122 11.9797 13.588 11.9797 13.6755C11.9797 13.763 12.012 13.839 12.0765 13.9035L12.7215 14.5485C12.8145 14.642 12.9193 14.6887 13.0358 14.6887C13.1523 14.6887 13.257 14.642 13.35 14.5485L14.9235 12.9982C14.988 12.9337 15.0228 12.8595 15.0278 12.7755C15.0328 12.691 14.998 12.6117 14.9235 12.5377C14.859 12.4732 14.78 12.441 14.6865 12.441C14.593 12.441 14.5137 12.4735 14.4487 12.5385L13.0282 13.9403ZM5.4525 6.5475H12.549C12.6555 6.5475 12.7445 6.51175 12.816 6.44025C12.8875 6.36875 12.9235 6.2795 12.924 6.1725C12.924 6.056 12.888 5.9645 12.816 5.898C12.7445 5.831 12.6555 5.7975 12.549 5.7975H5.45175C5.34525 5.7975 5.256 5.83325 5.184 5.90475C5.112 5.97625 5.07625 6.0655 5.07675 6.1725C5.07725 6.2795 5.113 6.36875 5.184 6.44025C5.255 6.51175 5.345 6.5475 5.4525 6.5475ZM13.5 16.587C12.6645 16.587 11.9557 16.2957 11.3737 15.7133C10.7913 15.1313 10.5 14.4225 10.5 13.587C10.5 12.7515 10.7913 12.0425 11.3737 11.46C11.9563 10.8775 12.665 10.5865 13.5 10.587C14.335 10.5875 15.044 10.8785 15.627 11.46C16.21 12.0415 16.501 12.7505 16.5 13.587C16.5 14.422 16.209 15.1308 15.627 15.7133C15.044 16.2957 14.335 16.587 13.5 16.587ZM3 4.212C3 3.876 3.118 3.59 3.354 3.354C3.59 3.118 3.876 3 4.212 3H13.7887C14.1237 3 14.4095 3.118 14.646 3.354C14.882 3.59 15 3.876 15 4.212V8.19975C15 8.30625 14.9643 8.3955 14.8927 8.4675C14.8212 8.5395 14.732 8.57525 14.625 8.57475C14.518 8.57425 14.4288 8.5385 14.3573 8.4675C14.2857 8.3965 14.25 8.30725 14.25 8.19975V4.212C14.25 4.0965 14.202 3.9905 14.106 3.894C14.01 3.7975 13.904 3.7495 13.788 3.75H4.212C4.0965 3.75 3.9905 3.798 3.894 3.894C3.7975 3.99 3.7495 4.096 3.75 4.212V14.2875H8.508C8.5235 14.3885 8.54175 14.4895 8.56275 14.5905C8.58425 14.6915 8.61175 14.791 8.64525 14.889C8.67875 14.9785 8.65625 15.0518 8.57775 15.1088C8.49875 15.1663 8.42375 15.1688 8.35275 15.1163L8.166 14.9888C8.1105 14.9523 8.052 14.934 7.9905 14.934C7.929 14.934 7.87025 14.9523 7.81425 14.9888L7.1565 15.444C7.101 15.481 7.0425 15.4995 6.981 15.4995C6.9195 15.4995 6.86075 15.481 6.80475 15.444L6.147 14.9888C6.091 14.9523 6.03225 14.934 5.97075 14.934C5.90925 14.934 5.85075 14.9523 5.79525 14.9888L5.1375 15.444C5.082 15.481 5.0235 15.4995 4.962 15.4995C4.9005 15.4995 4.84175 15.481 4.78575 15.444L4.128 14.9888C4.072 14.9523 4.01325 14.934 3.95175 14.934C3.89025 14.934 3.83175 14.9523 3.77625 14.9888L3 15.591V4.212ZM5.4525 12.2017H8.358C8.465 12.2017 8.55425 12.166 8.62575 12.0945C8.69725 12.023 8.733 11.9338 8.733 11.8267C8.733 11.7198 8.69725 11.6307 8.62575 11.5597C8.55425 11.4888 8.465 11.4528 8.358 11.4517H5.4525C5.346 11.4517 5.25675 11.4878 5.18475 11.5597C5.11275 11.6318 5.077 11.7207 5.0775 11.8267C5.078 11.9327 5.11375 12.022 5.18475 12.0945C5.25575 12.167 5.345 12.2027 5.4525 12.2017ZM5.4525 9.375H10.8555C10.962 9.375 11.0513 9.33925 11.1233 9.26775C11.1953 9.19625 11.231 9.107 11.2305 9C11.23 8.893 11.1943 8.80375 11.1233 8.73225C11.0522 8.66075 10.963 8.625 10.8555 8.625H5.45175C5.34525 8.625 5.256 8.66075 5.184 8.73225C5.112 8.80375 5.0765 8.893 5.0775 9C5.0785 9.107 5.11425 9.19625 5.18475 9.26775C5.25525 9.33925 5.3445 9.375 5.4525 9.375Z" fill="#252525"/>
</svg>
