<svg width="16" height="16" viewBox="0 0 16 16" fill="none" xmlns="http://www.w3.org/2000/svg">
<path d="M7.33333 7.33333L4 4" stroke="#000000"/>
<path d="M3.33337 4.99997L5.00004 3.33331L3.00004 2.33331L2.33337 2.99997L3.33337 4.99997ZM13.3167 5.98331C13.6368 5.66352 13.857 5.25757 13.9505 4.81489C14.044 4.37221 14.0068 3.91189 13.8434 3.48998L12.8954 4.43798H11.562V3.10464L12.51 2.15664C12.0881 1.99287 11.6276 1.95535 11.1847 2.04865C10.7419 2.14196 10.3357 2.36206 10.0157 2.68214C9.69564 3.00222 9.47563 3.40846 9.38243 3.85137C9.28922 4.29428 9.32684 4.75474 9.49071 5.17664L5.17737 9.49064C4.75547 9.32678 4.29501 9.28915 3.8521 9.38236C3.40919 9.47557 3.00295 9.69558 2.68287 10.0156C2.36279 10.3356 2.14269 10.7418 2.04939 11.1847C1.95608 11.6276 1.9936 12.088 2.15737 12.51L3.10471 11.562H4.43804V12.8953L3.49004 13.8433C3.91188 14.0071 4.37223 14.0447 4.81504 13.9515C5.25786 13.8583 5.66402 13.6383 5.98406 13.3184C6.30411 12.9985 6.52422 12.5925 6.61761 12.1497C6.711 11.7069 6.67363 11.2466 6.51004 10.8246L10.8247 6.50998C11.2464 6.6731 11.7065 6.71016 12.1489 6.61666C12.5913 6.52316 12.997 6.30312 13.3167 5.98331Z" stroke="#000000" stroke-linejoin="round"/>
<path d="M7.86475 9.66662L11.6007 13.4026C11.6843 13.4864 11.7836 13.5528 11.8929 13.5982C12.0022 13.6435 12.1194 13.6668 12.2377 13.6668C12.3561 13.6668 12.4733 13.6435 12.5826 13.5982C12.6919 13.5528 12.7912 13.4864 12.8747 13.4026L13.4027 12.8746C13.4865 12.791 13.5529 12.6917 13.5983 12.5824C13.6436 12.4731 13.667 12.356 13.667 12.2376C13.667 12.1193 13.6436 12.0021 13.5983 11.8928C13.5529 11.7835 13.4865 11.6842 13.4027 11.6006L9.66675 7.86462" stroke="#000000" stroke-linejoin="round"/>
</svg>
