<svg width="16" height="16" viewBox="0 0 16 16" fill="none" xmlns="http://www.w3.org/2000/svg">
<path d="M4.82399 4.66664C5.00088 4.47118 5.13738 4.24267 5.22564 3.99426C5.3139 3.74586 5.35219 3.48245 5.33829 3.2192C5.32439 2.95594 5.25858 2.69803 5.14465 2.4603C5.03072 2.22257 4.87091 2.00971 4.67442 1.83395C4.47793 1.6582 4.24864 1.52303 3.99972 1.43621C3.75081 1.3494 3.48718 1.31265 3.22401 1.32807C2.96084 1.3435 2.70332 1.41081 2.46625 1.52612C2.22919 1.64143 2.01726 1.80247 1.84265 1.99998C1.49266 2.39587 1.31357 2.91419 1.3445 3.4417C1.37542 3.96922 1.61386 4.46305 2.00771 4.81534C2.40157 5.16762 2.91883 5.34973 3.44652 5.32186C3.9742 5.294 4.46942 5.05844 4.82399 4.66664ZM4.82399 4.66664L13.3333 12M4.82399 11.3333C5.00088 11.5288 5.13738 11.7573 5.22564 12.0057C5.3139 12.2541 5.35219 12.5175 5.33829 12.7808C5.32439 13.044 5.25858 13.3019 5.14465 13.5397C5.03072 13.7774 4.87091 13.9902 4.67442 14.166C4.47793 14.3418 4.24864 14.4769 3.99972 14.5637C3.75081 14.6506 3.48718 14.6873 3.22401 14.6719C2.96084 14.6564 2.70332 14.5891 2.46625 14.4738C2.22919 14.3585 2.01726 14.1975 1.84265 14C1.49266 13.6041 1.31357 13.0858 1.3445 12.5583C1.37542 12.0307 1.61386 11.5369 2.00771 11.1846C2.40157 10.8323 2.91883 10.6502 3.44652 10.6781C3.9742 10.7059 4.46942 10.9415 4.82399 11.3333ZM4.82399 11.3333L13.3333 3.99998" stroke="#000000" stroke-linecap="round" stroke-linejoin="round"/>
</svg>
