<svg width="12" height="12" viewBox="0 0 12 12" fill="none" xmlns="http://www.w3.org/2000/svg">
<path fill-rule="evenodd" clip-rule="evenodd" d="M8.15495 7.78052L10.2119 9.83803L9.78795 10.262L7.72645 8.20052C7.03033 8.77454 6.13943 9.05756 5.23966 8.99051C4.33989 8.92345 3.50077 8.51152 2.89742 7.84066C2.29407 7.16981 1.9731 6.29186 2.00149 5.39005C2.02988 4.48823 2.40544 3.63222 3.0498 3.00064C3.69416 2.36907 4.55752 2.01073 5.45973 2.00041C6.36193 1.99009 7.23327 2.32859 7.8919 2.94526C8.55053 3.56193 8.94558 4.40913 8.99459 5.31006C9.0436 6.21099 8.7428 7.09604 8.15495 7.78052ZM8.39995 5.50002C8.39995 4.7309 8.09441 3.99327 7.55056 3.44942C7.0067 2.90556 6.26908 2.60002 5.49995 2.60002C4.73082 2.60002 3.9932 2.90556 3.44934 3.44942C2.90548 3.99327 2.59995 4.7309 2.59995 5.50002C2.59995 6.26915 2.90548 7.00678 3.44934 7.55063C3.9932 8.09449 4.73082 8.40002 5.49995 8.40002C6.26908 8.40002 7.0067 8.09449 7.55056 7.55063C8.09441 7.00678 8.39995 6.26915 8.39995 5.50002Z" fill="black"/>
</svg>
