<svg width="16" height="16" viewBox="0 0 16 16" fill="none" xmlns="http://www.w3.org/2000/svg">
<path d="M14.5334 9.33398C14.2571 10.6825 13.5706 11.9126 12.568 12.8557C11.5653 13.7988 10.2956 14.4087 8.9327 14.602V13.252C9.93923 13.0725 10.8731 12.6078 11.6233 11.9131C12.3734 11.2185 12.9085 10.3231 13.1647 9.33331L14.5334 9.33398ZM2.8347 9.33398C3.08807 10.3124 3.61392 11.1989 4.35114 11.8903C5.08837 12.5818 6.00669 13.0498 6.99937 13.24V14.592C5.65003 14.3866 4.39613 13.7724 3.40671 12.8322C2.4173 11.892 1.73996 10.6711 1.46603 9.33398H2.8347ZM11.9994 7.33331V8.66665H11.3327C10.6485 8.66665 9.99055 8.9296 9.49483 9.40113C8.9991 9.87265 8.70357 10.5167 8.66937 11.2L8.6667 11.3333V12H7.33337V11.3333C7.33337 10.6492 7.07041 9.99116 6.59888 9.49544C6.12736 8.99972 5.48334 8.70419 4.80003 8.66998L4.6667 8.66665H4.00003V7.33331H11.9994ZM7.99937 1.33331C11.4567 1.33331 14.2994 3.96465 14.6334 7.33331H13.292C13.1305 6.0435 12.5036 4.85706 11.529 3.9969C10.5544 3.13673 9.29925 2.66206 7.99937 2.66206C6.69948 2.66206 5.44433 3.13673 4.46974 3.9969C3.49516 4.85706 2.86821 6.0435 2.7067 7.33331H1.3667C1.70137 3.96465 4.54337 1.33331 8.00003 1.33331" fill="#000000"/>
</svg>
