<svg width="24" height="24" viewBox="0 0 24 24" fill="none" xmlns="http://www.w3.org/2000/svg">
<path d="M12.0027 9.99982V18.9998M9.0027 12.9998L12.0027 9.99982L15.0027 12.9998M17.5027 14.9998C19.0217 14.9998 20.0027 13.7688 20.0027 12.2498C20.0026 11.6484 19.8055 11.0637 19.4414 10.585C19.0772 10.1064 18.5663 9.76033 17.9867 9.59982C17.8975 8.47828 17.4327 7.41959 16.6674 6.59491C15.9021 5.77024 14.881 5.22778 13.7692 5.05525C12.6574 4.88271 11.52 5.09018 10.5407 5.64411C9.56142 6.19804 8.7976 7.06606 8.3727 8.10782C7.47813 7.85984 6.52168 7.97739 5.71378 8.4346C4.90587 8.89182 4.31268 9.65124 4.0647 10.5458C3.81672 11.4404 3.93427 12.3968 4.39149 13.2047C4.8487 14.0127 5.60813 14.6058 6.5027 14.8538" stroke="#1E5896" stroke-width="2" stroke-linecap="round" stroke-linejoin="round"/>
</svg>
