<svg width="24" height="24" viewBox="0 0 24 24" fill="none" xmlns="http://www.w3.org/2000/svg">
<path d="M11 16V7.41L8.71 9.7C8.32 10.09 7.69 10.09 7.3 9.7C6.91 9.31 6.91 8.68 7.3 8.29L11.3 4.29C11.69 3.9 12.32 3.9 12.71 4.29L16.71 8.29C17.1 8.68 17.1 9.31 16.71 9.7C16.32 10.09 15.69 10.09 15.3 9.7L13 7.41V16C13 16.55 12.55 17 12 17C11.45 17 11 16.55 11 16Z" fill="#1E5896"/>
<path d="M5 18C5 19.1 5.9 20 7 20H17C18.1 20 19 19.1 19 18V15C19 14.45 18.55 14 18 14C17.45 14 17 14.45 17 15V18H7V15C7 14.45 6.55 14 6 14C5.45 14 5 14.45 5 15V18Z" fill="#1E5896"/>
</svg>
