<svg width="20" height="20" viewBox="0 0 20 20" fill="none" xmlns="http://www.w3.org/2000/svg">
<path fill-rule="evenodd" clip-rule="evenodd" d="M17.4367 9.79164H15.1917C14.005 9.79164 13.1242 10.6741 13.1242 11.6666C13.1242 12.6591 14.005 13.5416 15.1908 13.5416H17.4558C17.6275 13.5308 17.7017 13.415 17.7075 13.345V9.98831C17.7017 9.91831 17.6275 9.80248 17.4558 9.79248L17.4367 9.79164ZM17.375 8.54164C17.4306 8.54109 17.4833 8.5422 17.5333 8.54498C18.2583 8.58914 18.9008 9.13664 18.955 9.90164C18.9583 9.95164 18.9583 10.0058 18.9583 10.0558V13.2775C18.9583 13.3275 18.9583 13.3816 18.955 13.4316C18.9008 14.1966 18.2583 14.7441 17.5325 14.7891C17.4831 14.7914 17.4303 14.7922 17.3742 14.7916H15.1925C13.405 14.7916 11.875 13.435 11.875 11.6666C11.875 9.89831 13.405 8.54164 15.1917 8.54164H17.375Z" fill="#252525"/>
<path d="M15.8337 11.6668C15.8337 11.8878 15.7459 12.0998 15.5896 12.2561C15.4333 12.4124 15.2213 12.5002 15.0003 12.5002C14.7793 12.5002 14.5673 12.4124 14.4111 12.2561C14.2548 12.0998 14.167 11.8878 14.167 11.6668C14.167 11.4458 14.2548 11.2339 14.4111 11.0776C14.5673 10.9213 14.7793 10.8335 15.0003 10.8335C15.2213 10.8335 15.4333 10.9213 15.5896 11.0776C15.7459 11.2339 15.8337 11.4458 15.8337 11.6668" fill="#252525"/>
<path fill-rule="evenodd" clip-rule="evenodd" d="M17.3753 8.54177C17.4309 8.54121 17.4837 8.54232 17.5337 8.5451C17.7212 8.55593 17.9028 8.60094 18.0712 8.6751C17.982 7.33677 17.7362 6.3051 16.9662 5.53427C16.342 4.91094 15.5512 4.63427 14.5745 4.5026L14.5395 4.49844L14.5128 4.47927L11.3995 2.4151C10.8593 2.06297 10.2285 1.87549 9.58366 1.87549C8.93886 1.87549 8.30798 2.06297 7.76783 2.4151L4.65533 4.47927L4.62783 4.49844L4.59283 4.5026C3.61616 4.63427 2.82533 4.91094 2.20116 5.53427C1.57783 6.15844 1.30116 6.94927 1.16949 7.92594C1.04199 8.87594 1.04199 10.0884 1.04199 11.6201V11.7134C1.04199 13.2451 1.04199 14.4584 1.16949 15.4076C1.30116 16.3843 1.57783 17.1751 2.20116 17.7993C2.82533 18.4226 3.61616 18.6993 4.59283 18.8309C5.54283 18.9584 6.75533 18.9584 8.28699 18.9584H10.8803C12.412 18.9584 13.6253 18.9584 14.5745 18.8309C15.5512 18.6993 16.342 18.4226 16.9662 17.7993C17.7362 17.0284 17.982 15.9968 18.0712 14.6576C17.9017 14.7332 17.7223 14.777 17.5328 14.7893C17.4834 14.7915 17.4306 14.7923 17.3745 14.7918H16.807C16.712 15.9101 16.4978 16.5001 16.082 16.9151C15.7295 17.2676 15.2462 17.4793 14.4078 17.5918C13.552 17.7068 12.4228 17.7084 10.8337 17.7084H8.33366C6.74449 17.7084 5.61616 17.7068 4.75866 17.5918C3.92116 17.4793 3.43783 17.2676 3.08533 16.9151C2.73283 16.5626 2.52116 16.0793 2.40866 15.2409C2.29366 14.3851 2.29199 13.2559 2.29199 11.6668C2.29199 10.0776 2.29366 8.94927 2.40866 8.09177C2.52116 7.25427 2.73283 6.77094 3.08533 6.41844C3.43783 6.06594 3.92116 5.85427 4.75949 5.74177C5.61616 5.62677 6.74449 5.6251 8.33366 5.6251H10.8337C12.4228 5.6251 13.552 5.62677 14.4087 5.74177C15.2462 5.85427 15.7295 6.06594 16.082 6.41844C16.4978 6.83344 16.712 7.42427 16.807 8.54177H17.3753ZM8.28699 4.3751H10.8803C11.3109 4.3751 11.7164 4.37594 12.097 4.3776L10.7087 3.45677C10.042 3.0151 9.12533 3.0151 8.45866 3.45677L7.06949 4.3776C7.4506 4.37538 7.85616 4.37455 8.28616 4.3751" fill="#252525"/>
<path d="M5 7.7085C4.83424 7.7085 4.67527 7.77434 4.55806 7.89155C4.44085 8.00876 4.375 8.16774 4.375 8.3335C4.375 8.49926 4.44085 8.65823 4.55806 8.77544C4.67527 8.89265 4.83424 8.9585 5 8.9585H8.33333C8.49909 8.9585 8.65806 8.89265 8.77527 8.77544C8.89249 8.65823 8.95833 8.49926 8.95833 8.3335C8.95833 8.16774 8.89249 8.00876 8.77527 7.89155C8.65806 7.77434 8.49909 7.7085 8.33333 7.7085H5Z" fill="#252525"/>
<path d="M15.8337 11.6668C15.8337 11.8878 15.7459 12.0998 15.5896 12.2561C15.4333 12.4124 15.2213 12.5002 15.0003 12.5002C14.7793 12.5002 14.5673 12.4124 14.4111 12.2561C14.2548 12.0998 14.167 11.8878 14.167 11.6668C14.167 11.4458 14.2548 11.2339 14.4111 11.0776C14.5673 10.9213 14.7793 10.8335 15.0003 10.8335C15.2213 10.8335 15.4333 10.9213 15.5896 11.0776C15.7459 11.2339 15.8337 11.4458 15.8337 11.6668" fill="#252525"/>
</svg>
